<mxfile host="Electron" modified="2023-08-08T13:50:41.774Z" agent="Mozilla/5.0 (Windows NT 10.0; Win64; x64) AppleWebKit/537.36 (KHTML, like Gecko) draw.io/21.6.5 Chrome/114.0.5735.243 Electron/25.3.1 Safari/537.36" etag="cXVpHoR9Fs586B8Koi43" version="21.6.5" type="device">
  <diagram name="Page-1" id="-GXESD8gDLY5Zhx5QqMf">
    <mxGraphModel dx="880" dy="545" grid="1" gridSize="10" guides="1" tooltips="1" connect="1" arrows="1" fold="1" page="1" pageScale="1" pageWidth="1169" pageHeight="827" math="0" shadow="0">
      <root>
        <mxCell id="0" />
        <mxCell id="1" parent="0" />
        <mxCell id="annvKx19ydOnUr7ImzUs-1" value="" style="shape=ellipse;container=1;horizontal=1;horizontalStack=0;resizeParent=1;resizeParentMax=0;resizeLast=0;html=1;dashed=1;collapsible=0;" vertex="1" parent="1">
          <mxGeometry width="650" height="450" as="geometry" />
        </mxCell>
        <mxCell id="annvKx19ydOnUr7ImzUs-2" value="&lt;span&gt;BrokerdSale&lt;/span&gt;" style="html=1;strokeColor=none;fillColor=none;align=center;verticalAlign=middle;spacingLeft=4;spacingRight=4;rotatable=0;points=[[0,0.5],[1,0.5]];resizeWidth=1;whiteSpace=wrap;fontStyle=1" vertex="1" parent="annvKx19ydOnUr7ImzUs-1">
          <mxGeometry width="650.0000000000001" height="58.69565217391304" as="geometry" />
        </mxCell>
        <mxCell id="annvKx19ydOnUr7ImzUs-3" value="" style="line;strokeWidth=1;fillColor=none;rotatable=0;labelPosition=right;points=[];portConstraint=eastwest;dashed=1;resizeWidth=1;" vertex="1" parent="annvKx19ydOnUr7ImzUs-1">
          <mxGeometry x="93.8888888888889" y="56.69565217391304" width="462.22222222222223" height="15.65217391304348" as="geometry" />
        </mxCell>
        <mxCell id="annvKx19ydOnUr7ImzUs-21" value="" style="group" vertex="1" connectable="0" parent="annvKx19ydOnUr7ImzUs-1">
          <mxGeometry x="48.33" y="110" width="551.67" height="290" as="geometry" />
        </mxCell>
        <mxCell id="annvKx19ydOnUr7ImzUs-5" value="buyer" style="html=1;align=center;verticalAlign=middle;rotatable=0;whiteSpace=wrap;" vertex="1" parent="annvKx19ydOnUr7ImzUs-21">
          <mxGeometry y="45.78947368421053" width="66.1998704010368" height="45.78947368421053" as="geometry">
            <mxPoint as="offset" />
          </mxGeometry>
        </mxCell>
        <mxCell id="annvKx19ydOnUr7ImzUs-9" value="retail:&lt;br&gt;Sale" style="ellipse;html=1;whiteSpace=wrap;dashed=1;" vertex="1" parent="annvKx19ydOnUr7ImzUs-21">
          <mxGeometry x="66.19545707634336" y="198.42105263157896" width="66.1998704010368" height="61.05263157894736" as="geometry" />
        </mxCell>
        <mxCell id="annvKx19ydOnUr7ImzUs-14" style="rounded=0;orthogonalLoop=1;jettySize=auto;html=1;exitX=0.5;exitY=1;exitDx=0;exitDy=0;endArrow=none;endFill=0;dashed=1;" edge="1" parent="annvKx19ydOnUr7ImzUs-21" source="annvKx19ydOnUr7ImzUs-5" target="annvKx19ydOnUr7ImzUs-9">
          <mxGeometry relative="1" as="geometry" />
        </mxCell>
        <mxCell id="annvKx19ydOnUr7ImzUs-18" value="seller" style="edgeLabel;html=1;align=center;verticalAlign=middle;resizable=0;points=[];" vertex="1" connectable="0" parent="annvKx19ydOnUr7ImzUs-14">
          <mxGeometry x="-0.4715" y="-2" relative="1" as="geometry">
            <mxPoint x="-24" y="-9" as="offset" />
          </mxGeometry>
        </mxCell>
        <mxCell id="annvKx19ydOnUr7ImzUs-10" value="wholesale:&lt;br&gt;Sale" style="ellipse;html=1;whiteSpace=wrap;dashed=1;spacing=3;" vertex="1" parent="annvKx19ydOnUr7ImzUs-21">
          <mxGeometry x="227.28622171022636" width="105.91979264165889" height="61.05263157894736" as="geometry" />
        </mxCell>
        <mxCell id="annvKx19ydOnUr7ImzUs-13" style="rounded=0;orthogonalLoop=1;jettySize=auto;html=1;exitX=1;exitY=0.5;exitDx=0;exitDy=0;entryX=0;entryY=0.5;entryDx=0;entryDy=0;endArrow=none;endFill=0;dashed=1;" edge="1" parent="annvKx19ydOnUr7ImzUs-21" source="annvKx19ydOnUr7ImzUs-5" target="annvKx19ydOnUr7ImzUs-10">
          <mxGeometry relative="1" as="geometry" />
        </mxCell>
        <mxCell id="annvKx19ydOnUr7ImzUs-19" value="buyer" style="edgeLabel;html=1;align=center;verticalAlign=middle;resizable=0;points=[];" vertex="1" connectable="0" parent="annvKx19ydOnUr7ImzUs-13">
          <mxGeometry x="-0.5001" y="-1" relative="1" as="geometry">
            <mxPoint y="14" as="offset" />
          </mxGeometry>
        </mxCell>
        <mxCell id="annvKx19ydOnUr7ImzUs-11" value="consumer" style="html=1;align=center;verticalAlign=middle;rotatable=0;whiteSpace=wrap;" vertex="1" parent="annvKx19ydOnUr7ImzUs-21">
          <mxGeometry x="267.0105572755418" y="244.21052631578945" width="105.91979264165889" height="45.78947368421053" as="geometry">
            <mxPoint as="offset" />
          </mxGeometry>
        </mxCell>
        <mxCell id="annvKx19ydOnUr7ImzUs-15" style="rounded=0;orthogonalLoop=1;jettySize=auto;html=1;exitX=1;exitY=1;exitDx=0;exitDy=0;entryX=0;entryY=0.5;entryDx=0;entryDy=0;endArrow=none;endFill=0;dashed=1;" edge="1" parent="annvKx19ydOnUr7ImzUs-21" source="annvKx19ydOnUr7ImzUs-9" target="annvKx19ydOnUr7ImzUs-11">
          <mxGeometry relative="1" as="geometry" />
        </mxCell>
        <mxCell id="annvKx19ydOnUr7ImzUs-17" value="buyer" style="edgeLabel;html=1;align=center;verticalAlign=middle;resizable=0;points=[];" vertex="1" connectable="0" parent="annvKx19ydOnUr7ImzUs-15">
          <mxGeometry x="0.3204" relative="1" as="geometry">
            <mxPoint x="10" y="-10" as="offset" />
          </mxGeometry>
        </mxCell>
        <mxCell id="annvKx19ydOnUr7ImzUs-12" value="producer" style="html=1;align=center;verticalAlign=middle;rotatable=0;whiteSpace=wrap;" vertex="1" parent="annvKx19ydOnUr7ImzUs-21">
          <mxGeometry x="458.9901814385485" y="91.57894736842105" width="92.67981856145153" height="45.78947368421053" as="geometry">
            <mxPoint as="offset" />
          </mxGeometry>
        </mxCell>
        <mxCell id="annvKx19ydOnUr7ImzUs-16" style="rounded=0;orthogonalLoop=1;jettySize=auto;html=1;exitX=1;exitY=0.5;exitDx=0;exitDy=0;entryX=0.5;entryY=0;entryDx=0;entryDy=0;endArrow=none;endFill=0;dashed=1;" edge="1" parent="annvKx19ydOnUr7ImzUs-21" source="annvKx19ydOnUr7ImzUs-10" target="annvKx19ydOnUr7ImzUs-12">
          <mxGeometry relative="1" as="geometry" />
        </mxCell>
        <mxCell id="annvKx19ydOnUr7ImzUs-20" value="seller" style="edgeLabel;html=1;align=center;verticalAlign=middle;resizable=0;points=[];" vertex="1" connectable="0" parent="annvKx19ydOnUr7ImzUs-16">
          <mxGeometry x="0.3729" y="3" relative="1" as="geometry">
            <mxPoint x="20" y="-9" as="offset" />
          </mxGeometry>
        </mxCell>
        <mxCell id="annvKx19ydOnUr7ImzUs-8" value="&lt;b&gt;Figure 11.53 The BrokeredSale Collaboration&lt;/b&gt;" style="text;html=1;align=left;verticalAlign=middle;resizable=0;points=[];autosize=1;strokeColor=none;fillColor=none;" vertex="1" parent="1">
          <mxGeometry y="480" width="280" height="30" as="geometry" />
        </mxCell>
      </root>
    </mxGraphModel>
  </diagram>
</mxfile>
